<svg xmlns="http://www.w3.org/2000/svg" xmlns:xlink="http://www.w3.org/1999/xlink" width="500" zoomAndPan="magnify" viewBox="0 0 375 374.999991" height="500" preserveAspectRatio="xMidYMid meet" version="1.0"><defs><g/></defs><g fill="#192e41" fill-opacity="1"><g transform="translate(127.337846, 212.624986)"><g><path d="M 22.453125 -54.609375 C 21.523438 -54.609375 20.429688 -54.578125 19.171875 -54.515625 C 17.910156 -54.460938 16.878906 -54.378906 16.078125 -54.265625 C 14.015625 -53.984375 12.296875 -53.367188 10.921875 -52.421875 C 9.546875 -51.472656 8.457031 -50.425781 7.65625 -49.28125 C 6.625 -47.675781 5.832031 -45.835938 5.28125 -43.765625 C 4.738281 -41.703125 4.410156 -39.984375 4.296875 -38.609375 L 1.890625 -38.609375 L 2.328125 -56.328125 L 52.203125 -56.328125 L 52.625 -38.609375 L 50.21875 -38.609375 C 50.164062 -38.953125 50.066406 -39.539062 49.921875 -40.375 C 49.773438 -41.207031 49.570312 -42.140625 49.3125 -43.171875 C 49.0625 -44.203125 48.734375 -45.257812 48.328125 -46.34375 C 47.929688 -47.4375 47.445312 -48.414062 46.875 -49.28125 C 46.070312 -50.476562 45.007812 -51.535156 43.6875 -52.453125 C 42.363281 -53.378906 40.957031 -53.984375 39.46875 -54.265625 C 38.894531 -54.378906 38.109375 -54.453125 37.109375 -54.484375 C 36.109375 -54.515625 34.429688 -54.554688 32.078125 -54.609375 L 32.078125 -1.71875 L 38.703125 -1.71875 L 38.703125 0 L 15.828125 0 L 15.828125 -1.71875 L 22.453125 -1.71875 Z M 22.453125 -54.609375 "/></g></g></g><g fill="#192e41" fill-opacity="1"><g transform="translate(165.516821, 212.624986)"><g><path d="M 10.75 -11.4375 C 10.457031 -10.75 10.109375 -9.742188 9.703125 -8.421875 C 9.304688 -7.109375 9.109375 -6.019531 9.109375 -5.15625 C 9.109375 -4.351562 9.296875 -3.738281 9.671875 -3.3125 C 10.046875 -2.882812 10.632812 -2.523438 11.4375 -2.234375 C 11.894531 -2.117188 12.425781 -2.019531 13.03125 -1.9375 C 13.632812 -1.851562 14.164062 -1.78125 14.625 -1.71875 L 14.625 0 L 0 0 L 0 -1.71875 C 0.976562 -1.832031 1.910156 -2.117188 2.796875 -2.578125 C 3.679688 -3.035156 4.441406 -3.582031 5.078125 -4.21875 C 5.585938 -4.789062 6.015625 -5.40625 6.359375 -6.0625 C 6.703125 -6.71875 6.929688 -7.21875 7.046875 -7.5625 L 26.0625 -56.328125 L 27.609375 -56.328125 L 47.21875 -1.71875 L 53.0625 -1.71875 L 53.0625 0 L 29.40625 0 L 29.40625 -1.71875 L 37.0625 -1.71875 L 30.703125 -19.09375 L 13.84375 -19.09375 Z M 22.703125 -42.140625 L 14.28125 -20.8125 L 30.09375 -20.8125 Z M 22.703125 -42.140625 "/></g></g></g><g fill="#192e41" fill-opacity="1"><g transform="translate(202.233928, 212.624986)"><g><path d="M 4.8125 -17.96875 C 5.382812 -16.59375 6.144531 -14.957031 7.09375 -13.0625 C 8.039062 -11.175781 9.03125 -9.570312 10.0625 -8.25 C 11.15625 -6.757812 12.34375 -5.523438 13.625 -4.546875 C 14.914062 -3.578125 16.234375 -2.804688 17.578125 -2.234375 C 18.929688 -1.660156 20.253906 -1.257812 21.546875 -1.03125 C 22.835938 -0.800781 24 -0.6875 25.03125 -0.6875 C 27.03125 -0.6875 28.847656 -1.03125 30.484375 -1.71875 C 32.117188 -2.40625 33.425781 -3.320312 34.40625 -4.46875 C 35.09375 -5.21875 35.722656 -6.207031 36.296875 -7.4375 C 36.867188 -8.664062 37.15625 -10.203125 37.15625 -12.046875 C 37.15625 -13.585938 36.925781 -14.898438 36.46875 -15.984375 C 36.007812 -17.078125 35.460938 -18 34.828125 -18.75 C 34.253906 -19.375 33.421875 -20.046875 32.328125 -20.765625 C 31.242188 -21.484375 29.785156 -22.101562 27.953125 -22.625 L 17.796875 -25.375 C 16.304688 -25.769531 14.703125 -26.441406 12.984375 -27.390625 C 11.265625 -28.335938 9.628906 -29.523438 8.078125 -30.953125 C 7.335938 -31.878906 6.632812 -33.171875 5.96875 -34.828125 C 5.3125 -36.492188 4.984375 -38.554688 4.984375 -41.015625 C 4.984375 -44.460938 5.554688 -47.203125 6.703125 -49.234375 C 7.847656 -51.265625 9.3125 -52.859375 11.09375 -54.015625 C 12.53125 -55.160156 14.019531 -55.988281 15.5625 -56.5 C 17.113281 -57.019531 18.75 -57.28125 20.46875 -57.28125 C 23.394531 -57.28125 26.085938 -56.789062 28.546875 -55.8125 C 29.804688 -55.351562 30.78125 -54.96875 31.46875 -54.65625 C 32.164062 -54.34375 32.828125 -54.1875 33.453125 -54.1875 C 34.203125 -54.1875 34.773438 -54.382812 35.171875 -54.78125 C 35.578125 -55.1875 36.007812 -55.703125 36.46875 -56.328125 L 37.84375 -56.328125 L 38.1875 -42.734375 L 36.984375 -42.734375 C 36.460938 -43.890625 35.726562 -45.269531 34.78125 -46.875 C 33.84375 -48.476562 32.828125 -49.820312 31.734375 -50.90625 C 30.242188 -52.457031 28.46875 -53.632812 26.40625 -54.4375 C 24.34375 -55.238281 22.390625 -55.640625 20.546875 -55.640625 C 18.828125 -55.640625 17.265625 -55.335938 15.859375 -54.734375 C 14.460938 -54.140625 13.332031 -53.410156 12.46875 -52.546875 C 11.5 -51.566406 10.78125 -50.414062 10.3125 -49.09375 C 9.851562 -47.78125 9.625 -46.46875 9.625 -45.15625 C 9.625 -42.507812 10.601562 -40.242188 12.5625 -38.359375 C 13.757812 -37.210938 15.046875 -36.421875 16.421875 -35.984375 C 17.796875 -35.554688 19.054688 -35.203125 20.203125 -34.921875 L 28.984375 -32.59375 C 29.835938 -32.363281 30.753906 -32.0625 31.734375 -31.6875 C 32.710938 -31.3125 33.6875 -30.820312 34.65625 -30.21875 C 35.632812 -29.625 36.566406 -28.878906 37.453125 -27.984375 C 38.335938 -27.097656 39.125 -26.054688 39.8125 -24.859375 C 40.5625 -23.535156 41.078125 -22.128906 41.359375 -20.640625 C 41.648438 -19.148438 41.796875 -17.601562 41.796875 -16 C 41.796875 -13.757812 41.460938 -11.691406 40.796875 -9.796875 C 40.140625 -7.910156 39.269531 -6.304688 38.1875 -4.984375 C 37.039062 -3.492188 35.375 -2.128906 33.1875 -0.890625 C 31.007812 0.335938 28.289062 0.953125 25.03125 0.953125 C 24.050781 0.953125 22.570312 0.820312 20.59375 0.5625 C 18.613281 0.300781 16.59375 -0.285156 14.53125 -1.203125 C 13.382812 -1.722656 12.394531 -2.195312 11.5625 -2.625 C 10.726562 -3.050781 9.910156 -3.265625 9.109375 -3.265625 C 8.140625 -3.265625 7.351562 -2.960938 6.75 -2.359375 C 6.144531 -1.765625 5.785156 -0.976562 5.671875 0 L 3.609375 0 L 3.609375 -17.96875 Z M 4.8125 -17.96875 "/></g></g></g></svg>