<svg width="154" height="78" viewBox="0 0 154 78" fill="none" xmlns="http://www.w3.org/2000/svg">
<path d="M66.5947 1.771L67.1338 24.396H64.8604C64.7837 23.9297 64.6773 23.2842 64.5342 22.4565V22.4536L64.3701 21.5874C64.1925 20.6954 63.9733 19.7288 63.7139 18.6909C63.3758 17.297 62.9324 15.8744 62.3857 14.4126H62.3867C61.9115 13.1082 61.3448 11.9209 60.6855 10.8462L60.3965 10.3921L60.3936 10.3872C59.352 8.84015 58.0018 7.46523 56.3496 6.26514L56.0146 6.02686C54.1957 4.7554 52.2557 3.91881 50.1973 3.52979H50.1963C49.3928 3.37171 48.3166 3.27195 46.9736 3.22998C45.6377 3.18824 43.3957 3.13587 40.2617 3.06299L39.75 3.05127V74.5835H48.583V75.8755H19.083V74.5835H27.917V3.06299H27.417C26.1668 3.06299 24.6993 3.10438 23.0166 3.18799C21.7505 3.24292 20.651 3.31899 19.7207 3.41846L18.8467 3.52588C16.0385 3.90911 13.6693 4.75351 11.7588 6.06689L11.7578 6.06787C9.88514 7.36065 8.38528 8.79683 7.27734 10.3804L7.27246 10.3882L7.2666 10.397C5.8606 12.5859 4.7842 15.0877 4.03809 17.8921L4.03711 17.894C3.36765 20.4371 2.93968 22.6064 2.75488 24.396H0.512695L1.07129 1.771H66.5947Z" fill="black" stroke="black"/>
<path d="M84.8452 1.771L110.872 74.2524L110.991 74.5835H118.634V75.8755H88.0923V74.5835H98.5161L98.27 73.9116L89.7915 50.7446L89.6714 50.4165H66.5054L66.3794 50.73L62.2573 60.9292C61.8562 61.8705 61.387 63.2345 60.8442 64.9985L60.8433 65.0005C60.3046 66.7748 60.0298 68.2811 60.0298 69.5005C60.0298 70.6438 60.2967 71.5962 60.9038 72.2866V72.2876C61.4804 72.9481 62.3483 73.4654 63.4653 73.8667L63.4878 73.8745L63.5103 73.8804C64.1438 74.0428 64.8722 74.1756 65.6919 74.2866C66.3122 74.3752 66.8773 74.4507 67.3843 74.519V75.8755H48.8843V74.5181C50.087 74.3306 51.2417 73.9529 52.3433 73.3804C53.5605 72.7501 54.6194 71.9929 55.5083 71.104L55.519 71.0933L55.5288 71.0825C56.2318 70.293 56.8281 69.4365 57.3062 68.5239C57.7681 67.642 58.0837 66.9477 58.2524 66.4526L83.4761 1.771H84.8452ZM78.1899 20.0044L66.9604 48.4419L66.6909 49.1255H89.2114L88.9819 48.4614L79.1274 20.0239L78.686 18.7485L78.1899 20.0044Z" fill="black" stroke="black"/>
<path d="M124.633 0.5C128.476 0.500036 132.002 1.1463 135.219 2.42285L135.231 2.42773C136.906 3.04136 138.193 3.54661 139.092 3.95508L139.094 3.95605C140.072 4.39567 141.028 4.625 141.945 4.625C143.031 4.62494 143.936 4.34018 144.59 3.68652C145.109 3.16756 145.646 2.52638 146.214 1.77051H147.311L147.745 18.8955H146.971C146.275 17.395 145.333 15.6369 144.146 13.6211C142.958 11.5916 141.671 9.85884 140.284 8.42773L140.006 8.14551C137.966 6.0281 135.542 4.42329 132.73 3.32617V3.3252L132.207 3.12793C129.601 2.17282 127.109 1.6875 124.736 1.6875C122.385 1.68754 120.234 2.10442 118.291 2.93555C116.38 3.74666 114.818 4.75342 113.612 5.95898L113.61 5.96094C112.266 7.32134 111.269 8.92112 110.62 10.749L110.619 10.751C109.986 12.5519 109.674 14.3582 109.674 16.167C109.674 19.8376 111.034 22.9877 113.744 25.5898C115.386 27.1671 117.169 28.2626 119.085 28.8721L119.088 28.873C120.926 29.4475 122.61 29.9175 124.15 30.2949V30.2959L135.858 33.3994C136.974 33.7016 138.181 34.0966 139.473 34.5908V34.5918C140.743 35.0793 142.017 35.7207 143.285 36.5078L143.289 36.5107C144.553 37.2791 145.766 38.2474 146.923 39.4141L146.924 39.415C148.066 40.5629 149.093 41.9168 149.989 43.4746V43.4756C150.962 45.1937 151.63 47.0171 151.995 48.9473L151.996 48.9492C152.375 50.9066 152.57 52.9377 152.57 55.042C152.57 57.9809 152.129 60.6799 151.264 63.1475V63.1484C150.406 65.6175 149.271 67.7041 147.871 69.4121L147.861 69.4238C146.474 71.2258 144.489 72.9012 141.876 74.4453L141.344 74.752C138.532 76.3343 134.998 77.1455 130.716 77.1455C129.602 77.1455 127.972 77.0132 125.818 76.75L124.864 76.6289C122.277 76.287 119.631 75.5216 116.921 74.3154H116.922C115.396 73.6251 114.086 72.9984 112.987 72.4307L112.984 72.4297L112.545 72.2188C111.521 71.7593 110.501 71.5205 109.486 71.5205C108.083 71.5206 106.899 71.9662 105.991 72.8721C105.186 73.6615 104.686 74.6742 104.472 75.875H102.653V52.917H103.426C104.176 54.699 105.153 56.79 106.352 59.1826C107.624 61.7208 108.964 63.8908 110.363 65.6826C111.843 67.6997 113.456 69.3776 115.204 70.71L115.207 70.7119C116.954 72.0252 118.75 73.0785 120.583 73.8564C122.415 74.6348 124.217 75.1818 125.982 75.4912V75.4922C127.723 75.8034 129.305 75.958 130.716 75.958C133.27 75.958 135.617 75.5464 137.756 74.7158L138.18 74.5439C140.41 73.6054 142.219 72.349 143.584 70.7549C144.544 69.7071 145.409 68.342 146.189 66.6699L146.19 66.6689C146.99 64.9487 147.383 62.8193 147.383 60.3125C147.383 58.2127 147.068 56.3928 146.427 54.8682C145.796 53.3728 145.042 52.0983 144.16 51.0527L144.146 51.0371L143.829 50.7061C143.051 49.9302 142.011 49.1186 140.719 48.2695C139.401 47.3981 137.71 46.6461 135.653 45.999L134.749 45.7275L134.742 45.7256L121.2 42.0586H121.198C119.257 41.5455 117.16 40.667 114.895 39.416H114.894C112.651 38.1822 110.511 36.6317 108.479 34.7627C107.658 33.7314 106.861 32.3297 106.094 30.5469L105.763 29.751C104.919 27.6086 104.486 24.9265 104.486 21.6875C104.486 17.1412 105.241 13.581 106.714 10.9756V10.9746C108.204 8.32988 110.103 6.26708 112.404 4.77344L112.425 4.76074L112.444 4.74512C114.321 3.25109 116.254 2.17803 118.248 1.5166L118.25 1.51562C120.264 0.840903 122.393 0.5 124.633 0.5Z" fill="black" stroke="black"/>
</svg>
